<svg xmlns="http://www.w3.org/2000/svg" viewBox="0 0 50.00 50.00" data-guides="{&quot;vertical&quot;:[],&quot;horizontal&quot;:[]}"><defs/><path fill="rgb(155, 24, 61)" stroke="none" fill-opacity="1" stroke-width="0" stroke-opacity="1" stroke-linecap="round" id="tSvg610adda147" title="Path 1" d="M0.9119 -0.6937C16.9679 -0.6937 33.0239 -0.6937 49.0799 -0.6937C49.9666 -0.6937 50.6855 0.0252 50.6855 0.9119C50.6855 16.9679 50.6855 33.0239 50.6855 49.0799C50.6855 49.9666 49.9666 50.6855 49.0799 50.6855C33.0239 50.6855 16.9679 50.6855 0.9119 50.6855C0.0252 50.6855 -0.6937 49.9666 -0.6937 49.0799C-0.6937 33.0239 -0.6937 16.9679 -0.6937 0.9119C-0.6937 0.0252 0.0252 -0.6937 0.9119 -0.6937Z"/><path fill="#335c81" stroke-width="0" x="-128" y="-128" rx="0" ry="0" width="256" height="256" id="tSvgc42d1f48ca" title="Rectangle 2" fill-opacity="1" stroke="none" stroke-opacity="1" d="M-0.6937 -0.6937H50.6855V50.6855H-0.6937Z" style="transform-origin: 25px 25px;"/><path fill="#65afff" stroke-width="0" x="-64" y="-64" rx="0" ry="0" width="128" height="128" id="tSvg12034a6e7ca" title="Rectangle 3" fill-opacity="1" stroke="none" stroke-opacity="1" d="M25.0001 -0.6937H50.6897V24.9959H25.0001Z" style="transform-origin: 37.84px 12.15px;"/><path fill="#1b2845" stroke-width="0" x="-64" y="-64" rx="0" ry="0" width="128" height="128" id="tSvga60079a233" title="Rectangle 4" fill-opacity="1" stroke="none" stroke-opacity="1" d="M-0.6937 25.0001H24.9959V50.6897H-0.6937Z" style="transform-origin: 12.15px 37.84px;"/><path fill="rgb(255, 255, 255)" stroke="none" fill-opacity="1" stroke-width="0" stroke-opacity="1" stroke-linecap="round" id="tSvg16e14e22839" title="Path 2" d="M27.0799 14.6496C35.0502 14.049 39.868 10.2537 41.3692 5.1952C30.8509 10.0417 17.7261 4.1127 15.242 14.8214C14.8175 16.7243 14.393 18.6272 13.9686 20.5301C16.1838 17.093 19.1099 15.2501 27.0799 14.6496ZM22.9356 15.6217C19.0183 16.186 15.8762 18.0032 14.1128 21.1949C13.5451 22.2219 13.3457 23.3256 13.3457 23.3256C13.0452 24.6726 12.7448 26.0195 12.4443 27.3664C13.5735 25.3528 15.5928 22.7794 20.885 21.5549C21.0041 20.9142 21.7267 17.2413 22.9356 15.6217ZM11.6218 31.0534C11.1629 33.1108 10.704 35.1681 10.2451 37.2255C13.8927 30.2803 21.7425 28.9323 22.7119 28.7297C29.5475 27.3002 32.8386 23.9062 34.1473 19.4955C28.1829 22.8684 14.2608 18.6332 11.6218 31.0534ZM9.5821 40.1993C9.2443 41.7134 8.9066 43.2276 8.5688 44.7418C16.6527 44.2867 17.5443 36.518 18.8634 30.3465C16.3483 31.2244 10.8056 34.6646 9.5821 40.1993Z"/></svg>